<svg id="Capa_1" fill="#66FCF1" enable-background="new 0 0 512 512" height="512" viewBox="0 0 512 512" width="512" xmlns="http://www.w3.org/2000/svg"><g><path d="m504.5 83.5h-497c-4.142 0-7.5 3.358-7.5 7.5v330c0 4.142 3.358 7.5 7.5 7.5h497c4.142 0 7.5-3.358 7.5-7.5v-330c0-4.142-3.358-7.5-7.5-7.5zm-489.5 51.72c2.545 2.594 5.362 4.96 8.46 7.017l89.253 59.263c1.276.847 2.716 1.253 4.142 1.253 2.428 0 4.811-1.178 6.255-3.353 2.292-3.451 1.352-8.105-2.1-10.396l-89.253-59.263c-10.493-6.968-16.757-18.646-16.757-31.241h482c0 12.595-6.264 24.274-16.757 31.241l-203.5 135.121c-12.601 8.367-28.885 8.367-41.487 0l-89.253-59.263c-3.449-2.29-8.105-1.352-10.396 2.1-2.292 3.451-1.352 8.105 2.099 10.396l57.088 37.905-171.334 113.763c-3.098 2.057-5.915 4.423-8.46 7.017zm0 278.28c0-12.595 6.264-24.274 16.757-31.241l176.596-117.257 18.607 12.355c8.82 5.857 18.93 8.785 29.04 8.785s20.22-2.928 29.041-8.785l18.607-12.355 176.596 117.257c10.492 6.968 16.756 18.646 16.756 31.241zm482-36.72c-2.545-2.594-5.361-4.959-8.459-7.016l-171.335-113.764 171.334-113.763c3.098-2.057 5.915-4.423 8.46-7.017z"/></g></svg>