<?xml version="1.0" encoding="iso-8859-1"?>
<!-- Generator: Adobe Illustrator 19.0.0, SVG Export Plug-In . SVG Version: 6.00 Build 0)  -->
<svg version="1.1" 
    fill="#66FCF1"  id="Capa_1" xmlns="http://www.w3.org/2000/svg" xmlns:xlink="http://www.w3.org/1999/xlink" x="0px" y="0px"
	 viewBox="0 0 512.01 512.01" style="enable-background:new 0 0 512.01 512.01;" xml:space="preserve">
<g>
	<g>
		<path d="M507.078,205.614c-2.995-1.408-6.536-0.947-9.079,1.169L303.08,369.215c-2.074,1.732-3.209,4.352-3.055,7.049
			c0.162,2.697,1.587,5.163,3.849,6.647l194.918,127.701c1.417,0.922,3.046,1.391,4.676,1.391c1.391,0,2.79-0.341,4.053-1.024
			c2.748-1.493,4.471-4.378,4.471-7.509V213.337C511.993,210.034,510.073,207.013,507.078,205.614z M494.935,487.675
			L322.869,374.941l172.066-143.394V487.675z"/>
	</g>
</g>
<g>
	<g>
		<path d="M208.915,369.215L13.996,206.783c-2.543-2.125-6.093-2.577-9.079-1.169c-2.995,1.399-4.915,4.412-4.915,7.723V503.47
			c0,3.132,1.715,6.016,4.471,7.509c1.271,0.683,2.671,1.024,4.062,1.024c1.63,0,3.26-0.469,4.668-1.391l194.918-127.701
			c2.261-1.485,3.686-3.951,3.849-6.647C212.123,373.567,210.997,370.947,208.915,369.215z M17.068,487.683V231.555l172.066,143.394
			L17.068,487.683z"/>
	</g>
</g>
<g>
	<g>
		<path d="M354.399,0.003H157.595c-21.026,0-38.127,17.109-38.127,38.135v196.796c0,21.026,17.101,38.135,38.127,38.135h59.699
			l31.607,47.403c1.587,2.372,4.25,3.797,7.1,3.797c2.85,0,5.513-1.425,7.1-3.797L294.7,273.07h59.699
			c21.026,0,38.135-17.109,38.135-38.135V38.139C392.535,17.113,375.426,0.003,354.399,0.003z M375.46,234.935
			c0,11.622-9.455,21.069-21.069,21.069h-64.265c-2.85,0-5.513,1.425-7.1,3.797l-27.034,40.55l-27.034-40.55
			c-1.587-2.372-4.25-3.797-7.1-3.797h-64.265c-11.614,0-21.06-9.455-21.06-21.069V38.139c0-11.622,9.446-21.069,21.06-21.069
			h196.796c11.622,0,21.069,9.455,21.069,21.069V234.935z"/>
	</g>
</g>
<g>
	<g>
		<path d="M256.001,34.137c-56.465,0-102.4,45.935-102.4,102.4s45.935,102.4,102.4,102.4s102.4-45.935,102.4-102.4
			S312.467,34.137,256.001,34.137z M256.001,221.87c-47.053,0-85.333-38.281-85.333-85.333s38.281-85.333,85.333-85.333
			s85.333,38.281,85.333,85.333S303.054,221.87,256.001,221.87z"/>
	</g>
</g>
<g>
	<g>
		<path d="M256.001,68.27c-18.825,0-34.133,15.309-34.133,34.133c0,18.825,15.309,34.133,34.133,34.133
			c18.825,0,34.133-15.309,34.133-34.133C290.135,83.579,274.826,68.27,256.001,68.27z M256.001,119.47
			c-9.412,0-17.067-7.654-17.067-17.067c0-9.412,7.654-17.067,17.067-17.067c9.412,0,17.067,7.654,17.067,17.067
			C273.068,111.816,265.414,119.47,256.001,119.47z"/>
	</g>
</g>
<g>
	<g>
		<path d="M339.125,185.39c-16.051-19.601-47.898-31.787-83.115-31.787s-67.063,12.186-83.115,31.787
			c-2.44,2.978-2.586,7.219-0.358,10.351c19.217,27.042,50.415,43.196,83.465,43.196c33.05,0,64.247-16.154,83.482-43.196
			C341.702,192.609,341.557,188.368,339.125,185.39z M256.001,221.87c-25.207,0-49.126-11.281-65.289-30.498
			c14.037-12.74,38.733-20.702,65.289-20.702s51.251,7.97,65.289,20.702C305.128,210.589,281.209,221.87,256.001,221.87z"/>
	</g>
</g>
<g>
	<g>
		<path d="M131.628,106.747c-2.987-1.408-6.528-0.964-9.071,1.152L3.091,206.766c-2.765,2.287-3.806,6.084-2.586,9.463
			s4.429,5.641,8.03,5.641h119.467c4.71,0,8.533-3.823,8.525-8.533v-98.867C136.526,111.167,134.615,108.155,131.628,106.747z
			 M119.468,204.803H32.232l87.236-72.192V204.803z"/>
	</g>
</g>
<g>
	<g>
		<path d="M508.904,206.766l-119.467-98.867c-2.552-2.108-6.076-2.551-9.071-1.152c-2.987,1.408-4.898,4.412-4.898,7.723v98.867
			c0,4.719,3.823,8.533,8.533,8.533h119.467c3.601,0,6.81-2.261,8.021-5.641C512.71,212.85,511.677,209.061,508.904,206.766z
			 M392.535,204.803v-72.192l87.236,72.192H392.535z"/>
	</g>
</g>
<g>
	<g>
		<path d="M503.468,204.803H384.001c-4.71,0-8.533,3.814-8.533,8.533v21.598c0,11.622-9.455,21.069-21.069,21.069h-64.265
			c-2.85,0-5.513,1.425-7.1,3.797l-27.034,40.55l-27.034-40.55c-1.587-2.372-4.25-3.797-7.1-3.797h-64.273
			c-11.614,0-21.06-9.455-21.06-21.069v-21.598c0-4.719-3.823-8.533-8.533-8.533H8.535c-4.71,0-8.533,3.814-8.533,8.533V503.47
			c0,4.719,3.823,8.533,8.533,8.533h494.933c4.71,0,8.533-3.823,8.533-8.533V213.337
			C512.002,208.618,508.179,204.803,503.468,204.803z M494.935,494.937H17.068V221.87h102.4v13.065
			c0,21.026,17.101,38.135,38.127,38.135h59.708l31.599,47.403c3.166,4.753,11.034,4.753,14.199,0L294.7,273.07h59.699
			c21.026,0,38.135-17.109,38.135-38.135V221.87h102.4V494.937z"/>
	</g>
</g>
<g>
	<g>
		<path d="M503.477,204.803H384.01c-4.71,0-8.533,3.814-8.533,8.533v21.598c0,11.622-9.455,21.069-21.069,21.069h-64.264
			c-2.85,0-5.513,1.425-7.1,3.797l-27.034,40.55l-27.034-40.55c-1.587-2.372-4.25-3.797-7.1-3.797h-64.273
			c-11.614,0-21.06-9.455-21.06-21.069v-21.598c0-4.719-3.823-8.533-8.533-8.533H8.543c-4.71,0-8.533,3.814-8.533,8.533V503.47
			c0,3.132,1.715,6.016,4.471,7.509c2.756,1.493,6.118,1.348,8.73-0.367l223.266-146.287c11.853-7.765,27.179-7.774,39.049,0.009
			l223.266,146.278c1.417,0.922,3.046,1.391,4.676,1.391c1.391,0,2.79-0.341,4.07-1.024c2.748-1.493,4.471-4.378,4.471-7.509
			V213.337C512.01,208.618,508.187,204.803,503.477,204.803z M494.935,487.675L284.878,350.058
			c-8.772-5.751-18.825-8.627-28.877-8.627s-20.105,2.876-28.877,8.619L17.068,487.675V221.87h102.4v13.065
			c0,21.026,17.101,38.135,38.127,38.135h59.708l31.599,47.403c3.166,4.753,11.034,4.753,14.199,0L294.7,273.07h59.699
			c21.026,0,38.135-17.109,38.135-38.135V221.87h102.4V487.675z"/>
	</g>
</g>
<g>
</g>
<g>
</g>
<g>
</g>
<g>
</g>
<g>
</g>
<g>
</g>
<g>
</g>
<g>
</g>
<g>
</g>
<g>
</g>
<g>
</g>
<g>
</g>
<g>
</g>
<g>
</g>
<g>
</g>
</svg>
